# This file uses centimeters as units for non-parametric coordinates.

v 0.000000 0.000000 0.000000
v 1.000000 0.000000 0.000000
v 0.000000 1.000000 -0.200000
v 1.000000 1.000000 -0.200000
v 0.000000 1.000000 -0.109374
v 0.000000 0.855998 0.000000
v 1.000000 1.000000 -0.109374
v 1.000000 0.855998 0.000000
vt 0.862803 0.996245
vt 0.001950 0.996247
vt 0.001947 0.224703
vt 0.862801 0.224701
vt 0.862800 0.120570
vt 0.001947 0.120571
vt 0.001946 0.001947
vt 0.862800 0.001946
vn 0.000000 0.000000 1.000000
vn 0.000000 0.000000 1.000000
vn 0.000000 0.108725 0.994072
vn 0.000000 0.108725 0.994072
vn 0.000000 0.811530 0.584310
vn 0.000000 0.811530 0.584310
vn 0.000000 1.000000 0.000000
vn 0.000000 1.000000 0.000000
s 1
f 1/1/1 2/2/2 8/3/3 6/4/4
f 5/5/5 7/6/6 4/7/7 3/8/8
f 5/5/5 6/4/4 8/3/3 7/6/6
