# This file uses centimeters as units for non-parametric coordinates.

g default
v 0.268997 0.055943 0.225000
v 0.792852 0.055943 0.225000
v 0.268997 0.324247 0.225000
v 0.792852 0.324247 0.225000
v 0.268997 0.324247 0.200000
v 0.792852 0.324247 0.200000
v 0.268997 0.055943 0.200000
v 0.792852 0.055943 0.200000
v -0.792853 0.055943 0.225000
v -0.268997 0.055943 0.225000
v -0.792853 0.324247 0.225000
v -0.268997 0.324247 0.225000
v -0.792853 0.324247 0.200000
v -0.268997 0.324247 0.200000
v -0.792853 0.055943 0.200000
v -0.268997 0.055943 0.200000
v -0.264874 0.055943 0.225000
v 0.264874 0.055943 0.225000
v -0.264874 0.324247 0.225000
v 0.264874 0.324247 0.225000
v -0.264874 0.324247 0.200000
v 0.264874 0.324247 0.200000
v -0.264874 0.055943 0.200000
v 0.264874 0.055943 0.200000
v -0.790000 0.000000 -0.193289
v -0.780000 0.000000 -0.193289
v -0.790000 0.000000 0.193289
v -0.780000 0.000000 0.193289
v -0.790000 0.010000 -0.183289
v -0.780000 0.010000 -0.183289
v -0.790000 0.010000 0.183289
v -0.780000 0.010000 0.183289
v -0.790000 0.052351 0.193289
v -0.780000 0.052351 0.193289
v -0.780000 0.052351 0.183289
v -0.790000 0.052351 0.183289
v -0.780000 0.052351 -0.183289
v -0.790000 0.052351 -0.183289
v -0.780000 0.052351 -0.193289
v -0.790000 0.052351 -0.193289
v 0.780000 0.010000 -0.005000
v 0.780000 0.000000 -0.005000
v 0.780000 0.000000 0.005000
v 0.780000 0.010000 0.005000
v -0.780000 0.010000 -0.005000
v -0.780000 0.000000 -0.005000
v -0.780000 0.000000 0.005000
v -0.780000 0.010000 0.005000
v 0.780000 0.000000 -0.193289
v 0.790000 0.000000 -0.193289
v 0.780000 0.000000 0.193289
v 0.790000 0.000000 0.193289
v 0.780000 0.010000 -0.183289
v 0.790000 0.010000 -0.183289
v 0.780000 0.010000 0.183289
v 0.790000 0.010000 0.183289
v 0.780000 0.052351 0.193289
v 0.790000 0.052351 0.193289
v 0.790000 0.052351 0.183289
v 0.780000 0.052351 0.183289
v 0.790000 0.052351 -0.183289
v 0.780000 0.052351 -0.183289
v 0.790000 0.052351 -0.193289
v 0.780000 0.052351 -0.193289
v -0.790000 0.010000 0.000000
v -0.790000 0.000000 0.000000
v 0.790000 0.000000 0.000000
v 0.790000 0.010000 0.000000
v -0.800000 0.052351 0.200000
v 0.800000 0.052351 0.200000
v -0.800000 0.452351 0.200000
v 0.800000 0.452351 0.200000
v -0.800000 0.452351 -0.200000
v 0.800000 0.452351 -0.200000
v -0.800000 0.052351 -0.200000
v 0.800000 0.052351 -0.200000
v -0.782683 0.070773 0.200000
v 0.782683 0.070773 0.200000
v 0.782683 0.433930 0.200000
v -0.782683 0.433930 0.200000
v -0.782683 0.070773 -0.158465
v 0.782683 0.070773 -0.158465
v 0.782683 0.433930 -0.158465
v -0.782683 0.433930 -0.158465
v -0.279167 0.070773 0.200000
v -0.254167 0.070773 0.200000
v -0.279167 0.433930 0.200000
v -0.254167 0.433930 0.200000
v -0.279167 0.433930 -0.158465
v -0.254167 0.433930 -0.158465
v -0.279167 0.070773 -0.158465
v -0.254167 0.070773 -0.158465
v 0.782683 0.301945 0.200000
v 0.782683 0.326945 0.200000
v 0.279167 0.301945 0.200000
v 0.279167 0.326945 0.200000
v 0.279167 0.301945 -0.158465
v 0.279167 0.326945 -0.158465
v 0.782683 0.301945 -0.158465
v 0.782683 0.326945 -0.158465
v 0.254167 0.301945 0.200000
v 0.254167 0.326945 0.200000
v -0.254167 0.301945 0.200000
v -0.254167 0.326945 0.200000
v -0.254167 0.301945 -0.158465
v -0.254167 0.326945 -0.158465
v 0.254167 0.301945 -0.158465
v 0.254167 0.326945 -0.158465
v 0.254167 0.070773 0.200000
v 0.279167 0.070773 0.200000
v 0.254167 0.433930 0.200000
v 0.279167 0.433930 0.200000
v 0.254167 0.433930 -0.158465
v 0.279167 0.433930 -0.158465
v 0.254167 0.070773 -0.158465
v 0.279167 0.070773 -0.158465
v -0.279167 0.301945 0.200000
v -0.279167 0.326945 0.200000
v -0.782683 0.301945 0.200000
v -0.782683 0.326945 0.200000
v -0.782683 0.301945 -0.158465
v -0.782683 0.326945 -0.158465
v -0.279167 0.301945 -0.158465
v -0.279167 0.326945 -0.158465
vt 0.895318 0.780054
vt 0.895303 0.951655
vt 0.807416 0.951644
vt 0.807427 0.780042
vt 0.799229 0.951641
vt 0.799237 0.780041
vt 0.991389 0.780062
vt 0.991386 0.951663
vt 0.903493 0.951660
vt 0.903505 0.780059
vt 0.895302 0.959842
vt 0.807413 0.959832
vt 0.895321 0.771868
vt 0.807432 0.771848
vt 0.104124 0.810619
vt 0.104112 0.982217
vt 0.016222 0.982208
vt 0.016235 0.810606
vt 0.008038 0.982206
vt 0.008042 0.810605
vt 0.200195 0.810622
vt 0.200195 0.982222
vt 0.112306 0.982222
vt 0.112307 0.810620
vt 0.104109 0.990404
vt 0.016221 0.990398
vt 0.104127 0.802430
vt 0.016238 0.802414
vt 0.556797 0.943802
vt 0.556804 0.770271
vt 0.644691 0.770277
vt 0.644687 0.943807
vt 0.652879 0.770278
vt 0.652876 0.943808
vt 0.460721 0.943798
vt 0.460724 0.770266
vt 0.548616 0.770270
vt 0.548608 0.943800
vt 0.556804 0.762082
vt 0.644693 0.762087
vt 0.556796 0.951991
vt 0.644685 0.951997
vt 0.059119 0.117105
vt 0.055845 0.116994
vt 0.055957 0.113720
vt 0.059230 0.113831
vt 0.033235 0.110511
vt 0.036507 0.110401
vt 0.037085 0.127540
vt 0.033811 0.127651
vt 0.012172 0.129370
vt 0.008947 0.132686
vt 0.008038 0.071027
vt 0.011315 0.070973
vt 0.061926 0.131080
vt 0.058542 0.134243
vt 0.062392 0.117215
vt 0.037196 0.130814
vt 0.033923 0.130926
vt 0.015446 0.129342
vt 0.014578 0.069316
vt 0.055268 0.134133
vt 0.052105 0.130748
vt 0.052571 0.116884
vt 0.065200 0.131190
vt 0.065665 0.117325
vt 0.039891 0.113564
vt 0.043164 0.113454
vt 0.043633 0.127319
vt 0.040359 0.127429
vt 0.030536 0.127761
vt 0.030071 0.113896
vt 0.789214 0.006175
vt 0.792490 0.006175
vt 0.792490 0.517225
vt 0.789214 0.517225
vt 0.795765 0.006175
vt 0.799041 0.006175
vt 0.799041 0.517225
vt 0.795765 0.517225
vt 0.085960 0.115155
vt 0.082687 0.115268
vt 0.082572 0.111995
vt 0.085846 0.111882
vt 0.107300 0.112837
vt 0.110573 0.112947
vt 0.109996 0.130084
vt 0.106722 0.129973
vt 0.089700 0.128909
vt 0.086537 0.132294
vt 0.089233 0.115045
vt 0.109885 0.133357
vt 0.106611 0.133245
vt 0.347936 0.130347
vt 0.344666 0.130285
vt 0.346539 0.070289
vt 0.349782 0.071973
vt 0.083262 0.132405
vt 0.079879 0.129242
vt 0.079414 0.115377
vt 0.076605 0.129350
vt 0.076141 0.115487
vt 0.100642 0.115890
vt 0.103916 0.116000
vt 0.103450 0.129863
vt 0.100177 0.129753
vt 0.011318 0.067656
vt 0.012173 0.009260
vt 0.015446 0.009288
vt 0.018767 0.006048
vt 0.017852 0.069316
vt 0.008043 0.067602
vt 0.008949 0.005942
vt 0.351102 0.006868
vt 0.353058 0.068489
vt 0.349783 0.068605
vt 0.347937 0.010232
vt 0.344665 0.010295
vt 0.343266 0.070289
vt 0.341289 0.007095
vt 0.542112 0.123625
vt 0.661071 0.123666
vt 0.661129 0.636436
vt 0.542169 0.636395
vt 0.276188 0.143164
vt 0.407161 0.143128
vt 0.407423 0.667242
vt 0.276341 0.667278
vt 0.145159 0.143090
vt 0.145312 0.667204
vt 0.014087 0.143126
vt 0.014325 0.667240
vt 0.145114 0.798179
vt 0.276142 0.798360
vt 0.145358 0.012008
vt 0.276386 0.012189
vt 0.008038 0.148795
vt 0.008305 0.661566
vt 0.270088 0.804031
vt 0.151128 0.803853
vt 0.413170 0.148803
vt 0.413482 0.661572
vt 0.151412 0.006337
vt 0.270373 0.006516
vt 0.778472 0.123648
vt 0.778575 0.636417
vt 0.661035 0.753877
vt 0.542075 0.753798
vt 0.424667 0.123643
vt 0.424769 0.636412
vt 0.542206 0.006183
vt 0.661167 0.006263
vt 0.787994 0.764982
vt 0.787994 0.773171
vt 0.669034 0.773171
vt 0.669034 0.764982
vt 0.787994 0.890593
vt 0.669034 0.890593
vt 0.787994 0.647560
vt 0.669034 0.647560
vt 0.811248 0.642095
vt 0.811248 0.633907
vt 0.976186 0.633907
vt 0.976186 0.642095
vt 0.811248 0.516484
vt 0.976186 0.516484
vt 0.976186 0.759518
vt 0.811248 0.759518
vt 0.977764 0.125385
vt 0.977764 0.133573
vt 0.811248 0.133574
vt 0.811248 0.125386
vt 0.977764 0.250996
vt 0.811249 0.250997
vt 0.977763 0.007961
vt 0.811247 0.007962
vt 0.811247 0.388855
vt 0.811250 0.380666
vt 0.930210 0.380672
vt 0.930208 0.388862
vt 0.811250 0.263248
vt 0.930211 0.263246
vt 0.811248 0.506282
vt 0.930209 0.506280
vt 0.284456 0.803546
vt 0.284456 0.795358
vt 0.449394 0.795358
vt 0.449394 0.803546
vt 0.284456 0.677935
vt 0.449394 0.677935
vt 0.449394 0.920969
vt 0.284456 0.920969
vt 0.018769 0.132582
vt 0.341290 0.133484
vt 0.113736 0.116330
vt 0.113270 0.130193
vt 0.353057 0.072088
vt 0.351102 0.133711
vn 0.000000 0.000000 1.000000
vn 0.000000 0.000000 1.000000
vn 0.000000 0.000000 1.000000
vn 0.000000 0.000000 1.000000
vn 0.000000 1.000000 0.000000
vn 0.000000 1.000000 0.000000
vn 0.000000 1.000000 0.000000
vn 0.000000 1.000000 0.000000
vn 0.000000 0.000000 -1.000000
vn 0.000000 0.000000 -1.000000
vn 0.000000 0.000000 -1.000000
vn 0.000000 0.000000 -1.000000
vn 0.000000 -1.000000 0.000000
vn 0.000000 -1.000000 0.000000
vn 0.000000 -1.000000 0.000000
vn 0.000000 -1.000000 0.000000
vn 1.000000 0.000000 0.000000
vn 1.000000 0.000000 0.000000
vn 1.000000 0.000000 0.000000
vn 1.000000 0.000000 0.000000
vn -1.000000 0.000000 0.000000
vn -1.000000 0.000000 0.000000
vn -1.000000 0.000000 0.000000
vn -1.000000 0.000000 0.000000
vn 0.000000 0.000000 1.000000
vn 0.000000 0.000000 1.000000
vn 0.000000 0.000000 1.000000
vn 0.000000 0.000000 1.000000
vn 0.000000 1.000000 0.000000
vn 0.000000 1.000000 0.000000
vn 0.000000 1.000000 0.000000
vn 0.000000 1.000000 0.000000
vn 0.000000 0.000000 -1.000000
vn 0.000000 0.000000 -1.000000
vn 0.000000 0.000000 -1.000000
vn 0.000000 0.000000 -1.000000
vn 0.000000 -1.000000 0.000000
vn 0.000000 -1.000000 0.000000
vn 0.000000 -1.000000 0.000000
vn 0.000000 -1.000000 0.000000
vn 1.000000 0.000000 0.000000
vn 1.000000 0.000000 0.000000
vn 1.000000 0.000000 0.000000
vn 1.000000 0.000000 0.000000
vn -1.000000 0.000000 0.000000
vn -1.000000 0.000000 0.000000
vn -1.000000 0.000000 0.000000
vn -1.000000 0.000000 0.000000
vn 0.000000 0.000000 1.000000
vn 0.000000 0.000000 1.000000
vn 0.000000 0.000000 1.000000
vn 0.000000 0.000000 1.000000
vn 0.000000 1.000000 0.000000
vn 0.000000 1.000000 0.000000
vn 0.000000 1.000000 0.000000
vn 0.000000 1.000000 0.000000
vn 0.000000 0.000000 -1.000000
vn 0.000000 0.000000 -1.000000
vn 0.000000 0.000000 -1.000000
vn 0.000000 0.000000 -1.000000
vn 0.000000 -1.000000 0.000000
vn 0.000000 -1.000000 0.000000
vn 0.000000 -1.000000 0.000000
vn 0.000000 -1.000000 0.000000
vn 1.000000 0.000000 0.000000
vn 1.000000 0.000000 0.000000
vn 1.000000 0.000000 0.000000
vn 1.000000 0.000000 0.000000
vn -1.000000 0.000000 0.000000
vn -1.000000 0.000000 0.000000
vn -1.000000 0.000000 0.000000
vn -1.000000 0.000000 0.000000
vn 0.000000 1.000000 0.000000
vn 0.000000 1.000000 0.000000
vn 0.000000 1.000000 0.000000
vn 0.000000 1.000000 0.000000
vn 0.000000 0.000000 -1.000000
vn 0.000000 0.000000 -1.000000
vn 0.000000 0.000000 -1.000000
vn 0.000000 0.000000 -1.000000
vn 1.000000 0.000000 0.000000
vn 1.000000 0.000000 0.000000
vn 1.000000 0.000000 0.000000
vn 1.000000 0.000000 0.000000
vn -1.000000 0.000000 0.000000
vn -1.000000 0.000000 0.000000
vn -1.000000 0.000000 0.000000
vn -1.000000 0.000000 0.000000
vn 0.000000 1.000000 0.000000
vn 0.000000 1.000000 0.000000
vn 0.000000 1.000000 0.000000
vn 0.000000 1.000000 0.000000
vn 0.000000 1.000000 0.000000
vn 0.000000 1.000000 0.000000
vn 0.000000 1.000000 0.000000
vn 0.000000 1.000000 0.000000
vn 0.000000 0.000000 1.000000
vn 0.000000 0.000000 1.000000
vn 0.000000 0.000000 1.000000
vn 0.000000 0.000000 1.000000
vn 1.000000 0.000000 0.000000
vn 1.000000 0.000000 0.000000
vn 1.000000 0.000000 0.000000
vn 1.000000 0.000000 0.000000
vn 0.000000 0.000000 -1.000000
vn 0.000000 0.000000 -1.000000
vn 0.000000 0.000000 -1.000000
vn 0.000000 0.000000 -1.000000
vn 0.000000 0.000000 1.000000
vn 0.000000 0.000000 1.000000
vn 0.000000 0.000000 1.000000
vn 0.000000 0.000000 1.000000
vn 1.000000 0.000000 0.000000
vn 1.000000 0.000000 0.000000
vn 1.000000 0.000000 0.000000
vn 1.000000 0.000000 0.000000
vn 0.000000 0.000000 -1.000000
vn 0.000000 0.000000 -1.000000
vn 0.000000 0.000000 -1.000000
vn 0.000000 0.000000 -1.000000
vn 0.000000 0.000000 1.000000
vn 0.000000 0.000000 1.000000
vn 0.000000 0.000000 1.000000
vn 0.000000 0.000000 1.000000
vn 0.000000 1.000000 0.000000
vn 0.000000 1.000000 0.000000
vn 0.000000 1.000000 0.000000
vn 0.000000 1.000000 0.000000
vn 0.000000 1.000000 0.000000
vn 0.000000 1.000000 0.000000
vn 0.000000 1.000000 0.000000
vn 0.000000 1.000000 0.000000
vn 0.000000 0.000000 -1.000000
vn 0.000000 0.000000 -1.000000
vn 0.000000 0.000000 -1.000000
vn 0.000000 0.000000 -1.000000
vn -1.000000 0.000000 0.000000
vn -1.000000 0.000000 0.000000
vn -1.000000 0.000000 0.000000
vn -1.000000 0.000000 0.000000
vn 0.000000 1.000000 0.000000
vn 0.000000 1.000000 0.000000
vn 0.000000 1.000000 0.000000
vn 0.000000 1.000000 0.000000
vn 0.000000 1.000000 0.000000
vn 0.000000 1.000000 0.000000
vn 0.000000 1.000000 0.000000
vn 0.000000 1.000000 0.000000
vn 0.000000 0.000000 1.000000
vn 0.000000 0.000000 1.000000
vn 0.000000 0.000000 1.000000
vn 0.000000 0.000000 1.000000
vn 1.000000 0.000000 0.000000
vn 1.000000 0.000000 0.000000
vn 1.000000 0.000000 0.000000
vn 1.000000 0.000000 0.000000
vn 0.000000 0.000000 -1.000000
vn 0.000000 0.000000 -1.000000
vn 0.000000 0.000000 -1.000000
vn 0.000000 0.000000 -1.000000
vn 0.000000 0.000000 1.000000
vn 0.000000 0.000000 1.000000
vn 0.000000 0.000000 1.000000
vn 0.000000 0.000000 1.000000
vn 1.000000 0.000000 0.000000
vn 1.000000 0.000000 0.000000
vn 1.000000 0.000000 0.000000
vn 1.000000 0.000000 0.000000
vn 0.000000 1.000000 0.000000
vn 0.000000 1.000000 0.000000
vn 0.000000 1.000000 0.000000
vn 0.000000 1.000000 0.000000
vn -1.000000 0.000000 0.000000
vn -1.000000 0.000000 0.000000
vn -1.000000 0.000000 0.000000
vn -1.000000 0.000000 0.000000
vn 1.000000 0.000000 0.000000
vn 1.000000 0.000000 0.000000
vn 1.000000 0.000000 0.000000
vn 1.000000 0.000000 0.000000
vn -1.000000 0.000000 0.000000
vn -1.000000 0.000000 0.000000
vn -1.000000 0.000000 0.000000
vn -1.000000 0.000000 0.000000
vn 1.000000 0.000000 0.000000
vn 1.000000 0.000000 0.000000
vn 1.000000 0.000000 0.000000
vn 1.000000 0.000000 0.000000
vn 0.000000 1.000000 0.000000
vn 0.000000 1.000000 0.000000
vn 0.000000 1.000000 0.000000
vn 0.000000 1.000000 0.000000
vn 0.000000 1.000000 0.000000
vn 0.000000 1.000000 0.000000
vn 0.000000 1.000000 0.000000
vn 0.000000 1.000000 0.000000
vn 0.000000 1.000000 0.000000
vn 0.000000 1.000000 0.000000
vn 0.000000 0.000000 1.000000
vn 0.000000 0.000000 1.000000
vn 0.000000 0.000000 1.000000
vn 0.000000 0.000000 1.000000
vn 0.000000 1.000000 0.000000
vn 0.000000 1.000000 0.000000
vn 0.000000 1.000000 0.000000
vn 0.000000 1.000000 0.000000
vn 0.000000 0.000000 -1.000000
vn 0.000000 0.000000 -1.000000
vn 0.000000 0.000000 -1.000000
vn 0.000000 0.000000 -1.000000
vn 0.000000 -1.000000 0.000000
vn 0.000000 -1.000000 0.000000
vn 0.000000 -1.000000 0.000000
vn 0.000000 -1.000000 0.000000
vn 1.000000 0.000000 0.000000
vn 1.000000 0.000000 0.000000
vn 1.000000 0.000000 0.000000
vn 1.000000 0.000000 0.000000
vn -1.000000 0.000000 0.000000
vn -1.000000 0.000000 0.000000
vn -1.000000 0.000000 0.000000
vn -1.000000 0.000000 0.000000
vn 0.000000 0.000000 1.000000
vn 0.000000 0.000000 1.000000
vn 0.000000 0.000000 1.000000
vn 0.000000 0.000000 1.000000
vn 0.000000 0.000000 1.000000
vn 0.000000 0.000000 1.000000
vn 0.000000 0.000000 1.000000
vn 0.000000 0.000000 1.000000
vn 0.000000 0.000000 1.000000
vn 0.000000 0.000000 1.000000
vn 0.000000 0.000000 1.000000
vn 0.000000 0.000000 1.000000
vn 0.000000 0.000000 1.000000
vn 0.000000 0.000000 1.000000
vn 0.000000 0.000000 1.000000
vn 0.000000 0.000000 1.000000
vn 0.000000 1.000000 0.000000
vn 0.000000 1.000000 0.000000
vn 0.000000 1.000000 0.000000
vn 0.000000 1.000000 0.000000
vn -1.000000 0.000000 0.000000
vn -1.000000 0.000000 0.000000
vn -1.000000 0.000000 0.000000
vn -1.000000 0.000000 0.000000
vn 0.000000 -1.000000 0.000000
vn 0.000000 -1.000000 0.000000
vn 0.000000 -1.000000 0.000000
vn 0.000000 -1.000000 0.000000
vn 1.000000 0.000000 0.000000
vn 1.000000 0.000000 0.000000
vn 1.000000 0.000000 0.000000
vn 1.000000 0.000000 0.000000
vn 0.000000 0.000000 1.000000
vn 0.000000 0.000000 1.000000
vn 0.000000 0.000000 1.000000
vn 0.000000 0.000000 1.000000
vn 1.000000 0.000000 0.000000
vn 1.000000 0.000000 0.000000
vn 1.000000 0.000000 0.000000
vn 1.000000 0.000000 0.000000
vn -1.000000 0.000000 0.000000
vn -1.000000 0.000000 0.000000
vn -1.000000 0.000000 0.000000
vn -1.000000 0.000000 0.000000
vn 0.000000 0.000000 1.000000
vn 0.000000 0.000000 1.000000
vn 0.000000 0.000000 1.000000
vn 0.000000 0.000000 1.000000
vn 0.000000 1.000000 0.000000
vn 0.000000 1.000000 0.000000
vn 0.000000 1.000000 0.000000
vn 0.000000 1.000000 0.000000
vn 0.000000 -1.000000 0.000000
vn 0.000000 -1.000000 0.000000
vn 0.000000 -1.000000 0.000000
vn 0.000000 -1.000000 0.000000
vn 0.000000 0.000000 1.000000
vn 0.000000 0.000000 1.000000
vn 0.000000 0.000000 1.000000
vn 0.000000 0.000000 1.000000
vn 0.000000 1.000000 0.000000
vn 0.000000 1.000000 0.000000
vn 0.000000 1.000000 0.000000
vn 0.000000 1.000000 0.000000
vn 0.000000 -1.000000 0.000000
vn 0.000000 -1.000000 0.000000
vn 0.000000 -1.000000 0.000000
vn 0.000000 -1.000000 0.000000
vn 0.000000 0.000000 1.000000
vn 0.000000 0.000000 1.000000
vn 0.000000 0.000000 1.000000
vn 0.000000 0.000000 1.000000
vn 1.000000 0.000000 0.000000
vn 1.000000 0.000000 0.000000
vn 1.000000 0.000000 0.000000
vn 1.000000 0.000000 0.000000
vn -1.000000 0.000000 0.000000
vn -1.000000 0.000000 0.000000
vn -1.000000 0.000000 0.000000
vn -1.000000 0.000000 0.000000
vn 0.000000 0.000000 1.000000
vn 0.000000 0.000000 1.000000
vn 0.000000 0.000000 1.000000
vn 0.000000 0.000000 1.000000
vn 0.000000 1.000000 0.000000
vn 0.000000 1.000000 0.000000
vn 0.000000 1.000000 0.000000
vn 0.000000 1.000000 0.000000
vn 0.000000 -1.000000 0.000000
vn 0.000000 -1.000000 0.000000
vn 0.000000 -1.000000 0.000000
vn 0.000000 -1.000000 0.000000
vn -1.000000 0.000000 0.000000
vn -1.000000 0.000000 0.000000
vn -1.000000 0.000000 0.000000
vn -1.000000 0.000000 0.000000
vn -1.000000 0.000000 0.000000
vn -1.000000 0.000000 0.000000
vn -1.000000 0.000000 0.000000
vn -1.000000 0.000000 0.000000
vn 1.000000 0.000000 0.000000
vn 1.000000 0.000000 0.000000
vn 1.000000 0.000000 0.000000
vn 1.000000 0.000000 0.000000
vn -1.000000 0.000000 0.000000
vn -1.000000 0.000000 0.000000
vn -1.000000 0.000000 0.000000
vn -1.000000 0.000000 0.000000
vn -1.000000 0.000000 0.000000
vn -1.000000 0.000000 0.000000
vn -1.000000 0.000000 0.000000
vn -1.000000 0.000000 0.000000
s off
g TVtable_LP_UV1
f 1/1/1 2/2/2 4/3/3 3/4/4
f 3/4/5 4/3/6 6/5/7 5/6/8
f 5/7/9 6/8/10 8/9/11 7/10/12
f 7/10/13 8/9/14 2/2/15 1/1/16
f 2/2/17 8/11/18 6/12/19 4/3/20
f 7/13/21 1/1/22 3/4/23 5/14/24
f 9/15/25 10/16/26 12/17/27 11/18/28
f 11/18/29 12/17/30 14/19/31 13/20/32
f 13/21/33 14/22/34 16/23/35 15/24/36
f 15/24/37 16/23/38 10/16/39 9/15/40
f 10/16/41 16/25/42 14/26/43 12/17/44
f 15/27/45 9/15/46 11/18/47 13/28/48
f 17/29/49 18/30/50 20/31/51 19/32/52
f 19/32/53 20/31/54 22/33/55 21/34/56
f 21/35/57 22/36/58 24/37/59 23/38/60
f 23/38/61 24/37/62 18/30/63 17/29/64
f 18/30/65 24/39/66 22/40/67 20/31/68
f 23/41/69 17/29/70 19/32/71 21/42/72
f 33/43/73 34/44/74 35/45/75 36/46/76
f 26/47/77 25/48/78 40/49/79 39/50/80
f 32/51/81 28/52/82 47/53/83 48/54/84
f 31/55/85 27/56/86 33/43/87 36/57/88
f 38/58/89 37/59/90 39/50/91 40/49/92
f 31/60/93 32/51/94 48/54/95 65/61/96
f 28/62/97 34/44/98 33/43/99 27/56/100
f 32/63/101 35/64/102 34/44/103 28/62/104
f 32/65/105 31/55/106 36/57/107 35/66/108
f 29/67/109 30/68/110 37/69/111 38/70/112
f 26/47/113 39/50/114 37/71/115 30/72/116
f 46/73/117 45/74/118 41/75/119 42/76/120
f 48/77/121 47/78/122 43/79/123 44/80/124
f 45/74/125 48/77/126 44/80/127 41/75/128
f 57/81/129 58/82/130 59/83/131 60/84/132
f 50/85/133 49/86/134 64/87/135 63/88/136
f 55/89/137 51/90/138 57/81/139 60/91/140
f 62/92/141 61/93/142 63/88/143 64/87/144
f 55/94/145 56/95/146 68/96/147 44/97/148
f 52/98/149 58/82/150 57/81/151 51/90/152
f 56/99/153 59/100/154 58/82/155 52/98/156
f 56/99/157 55/101/158 60/102/159 59/100/160
f 53/103/161 54/104/162 61/105/163 62/106/164
f 50/85/165 63/88/166 61/105/167 54/104/168
f 65/61/169 45/107/170 30/108/171 29/109/172
f 25/110/173 66/111/174 65/61/175 29/109/176
f 30/108/177 45/107/178 46/112/179 26/113/180
f 49/114/181 42/115/182 41/116/183 53/117/184
f 54/118/185 68/96/186 67/119/187 50/120/188
f 41/116/189 68/96/190 54/118/191 53/117/192
f 65/61/193 48/54/194 45/107/195
f 44/97/196 68/96/197 41/116/198
f 84/121/199 81/122/200 82/123/201 83/124/202
f 73/125/203 71/126/204 72/127/205 74/128/206
f 75/129/207 73/125/208 74/128/209 76/130/210
f 69/131/211 75/129/212 76/130/213 70/132/214
f 70/133/215 76/130/216 74/128/217 72/134/218
f 75/129/219 69/135/220 71/136/221 73/125/222
f 77/137/223 69/131/224 70/132/225 78/138/226
f 70/133/227 72/134/228 79/139/229 78/140/230
f 72/127/231 71/126/232 80/141/233 79/142/234
f 71/136/235 69/135/236 77/143/237 80/144/238
f 81/122/239 77/145/240 78/146/241 82/123/242
f 78/147/243 79/148/244 83/124/245 82/123/246
f 80/149/247 84/121/248 83/124/249 79/150/250
f 80/151/251 77/152/252 81/122/253 84/121/254
f 85/153/255 86/154/256 88/155/257 87/156/258
f 86/154/259 92/157/260 90/158/261 88/155/262
f 91/159/263 85/153/264 87/156/265 89/160/266
f 93/161/267 94/162/268 96/163/269 95/164/270
f 94/162/271 100/165/272 98/166/273 96/163/274
f 97/167/275 99/168/276 93/161/277 95/164/278
f 101/169/279 102/170/280 104/171/281 103/172/282
f 102/170/283 108/173/284 106/174/285 104/171/286
f 107/175/287 101/169/288 103/172/289 105/176/290
f 109/177/291 110/178/292 112/179/293 111/180/294
f 110/178/295 116/181/296 114/182/297 112/179/298
f 115/183/299 109/177/300 111/180/301 113/184/302
f 117/185/303 118/186/304 120/187/305 119/188/306
f 118/186/307 124/189/308 122/190/309 120/187/310
f 121/191/311 123/192/312 117/185/313 119/188/314
f 66/111/315 27/193/316 31/60/317 65/61/318
f 25/48/319 29/67/320 38/70/321 40/49/322
f 56/95/323 52/194/324 67/119/325 68/96/326
f 49/86/327 53/195/328 62/196/329 64/87/330
f 43/197/331 51/198/332 55/94/333 44/97/334
