# This file uses centimeters as units for non-parametric coordinates.

v 0.000000 0.000000 0.000000
v 2.500000 0.000000 0.000000
v 0.000000 0.050000 0.000000
v 2.500000 0.050000 0.000000
v 0.000000 0.050000 -1.200000
v 2.500000 0.050000 -1.200000
v 0.000000 0.000000 -1.200000
v 2.500000 0.000000 -1.200000
vt 0.021354 0.480864
vt 0.977947 0.480243
vt 0.977959 0.499366
vt 0.021366 0.500004
vt 0.958541 0.996653
vt 0.001948 0.996653
vt 0.001948 0.537487
vt 0.958541 0.537487
vt 0.021062 0.002566
vt 0.977655 0.001948
vt 0.977666 0.021081
vt 0.021074 0.021696
vt 0.996804 0.021070
vt 0.997073 0.480235
vt 0.002216 0.480871
vt 0.001948 0.021707
vn 0.000000 0.000000 1.000000
vn 0.000000 0.000000 1.000000
vn 0.000000 0.000000 1.000000
vn 0.000000 0.000000 1.000000
vn 0.000000 1.000000 0.000000
vn 0.000000 1.000000 0.000000
vn 0.000000 1.000000 0.000000
vn 0.000000 1.000000 0.000000
vn 0.000000 0.000000 -1.000000
vn 0.000000 0.000000 -1.000000
vn 0.000000 0.000000 -1.000000
vn 0.000000 0.000000 -1.000000
vn 0.000000 -1.000000 0.000000
vn 0.000000 -1.000000 0.000000
vn 0.000000 -1.000000 0.000000
vn 0.000000 -1.000000 0.000000
vn 1.000000 0.000000 0.000000
vn 1.000000 0.000000 0.000000
vn 1.000000 0.000000 0.000000
vn 1.000000 0.000000 0.000000
vn -1.000000 0.000000 0.000000
vn -1.000000 0.000000 0.000000
vn -1.000000 0.000000 0.000000
vn -1.000000 0.000000 0.000000
s off
f 1/1/1 2/2/2 4/3/3 3/4/4
f 3/5/5 4/6/6 6/7/7 5/8/8
f 5/9/9 6/10/10 8/11/11 7/12/12
f 7/12/13 8/11/14 2/2/15 1/1/16
f 2/2/17 8/11/18 6/13/19 4/14/20
f 7/12/21 1/1/22 3/15/23 5/16/24
v 0.000000 0.000000 0.000000
v 2.500000 0.000000 0.000000
v 0.000000 0.050000 0.000000
v 2.500000 0.050000 0.000000
v 0.000000 0.050000 -1.200000
v 2.500000 0.050000 -1.200000
v 0.000000 0.000000 -1.200000
v 2.500000 0.000000 -1.200000
vt 0.021354 0.480864
vt 0.977947 0.480243
vt 0.977959 0.499366
vt 0.021366 0.500004
vt 0.958541 0.996653
vt 0.001948 0.996653
vt 0.001948 0.537487
vt 0.958541 0.537487
vt 0.021062 0.002566
vt 0.977655 0.001948
vt 0.977666 0.021081
vt 0.021074 0.021696
vt 0.996804 0.021070
vt 0.997073 0.480235
vt 0.002216 0.480871
vt 0.001948 0.021707
vn 0.000000 0.000000 1.000000
vn 0.000000 0.000000 1.000000
vn 0.000000 0.000000 1.000000
vn 0.000000 0.000000 1.000000
vn 0.000000 1.000000 0.000000
vn 0.000000 1.000000 0.000000
vn 0.000000 1.000000 0.000000
vn 0.000000 1.000000 0.000000
vn 0.000000 0.000000 -1.000000
vn 0.000000 0.000000 -1.000000
vn 0.000000 0.000000 -1.000000
vn 0.000000 0.000000 -1.000000
vn 0.000000 -1.000000 0.000000
vn 0.000000 -1.000000 0.000000
vn 0.000000 -1.000000 0.000000
vn 0.000000 -1.000000 0.000000
vn 1.000000 0.000000 0.000000
vn 1.000000 0.000000 0.000000
vn 1.000000 0.000000 0.000000
vn 1.000000 0.000000 0.000000
vn -1.000000 0.000000 0.000000
vn -1.000000 0.000000 0.000000
vn -1.000000 0.000000 0.000000
vn -1.000000 0.000000 0.000000
s off
f 9/17/25 10/18/26 12/19/27 11/20/28
f 11/21/29 12/22/30 14/23/31 13/24/32
f 13/25/33 14/26/34 16/27/35 15/28/36
f 15/28/37 16/27/38 10/18/39 9/17/40
f 10/18/41 16/27/42 14/29/43 12/30/44
f 15/28/45 9/17/46 11/31/47 13/32/48
